<svg xmlns="http://www.w3.org/2000/svg" xmlns:xlink="http://www.w3.org/1999/xlink" version="1.1" width="381.051" height="381.051" style="enable-background:new 0 0 381.051 381.051;" xml:space="preserve"><rect id="backgroundrect" width="100%" height="100%" x="0" y="0" fill="none" stroke="none"/>
















<g class="currentLayer" style=""><title>Layer 1</title><g id="svg_1" class="selected" opacity="0.7">
	<path d="M366.928,56.035H14.124C6.324,56.035,0,62.358,0,70.158v240.733c0,7.799,6.324,14.124,14.124,14.124h352.804   c7.799,0,14.123-6.325,14.123-14.124V70.158C381.051,62.358,374.727,56.035,366.928,56.035z M28.247,96.901l95.947,65.465   L28.247,273.039V96.901L28.247,96.901z M190.529,173.428L59.88,84.281h261.29L190.529,173.428z M147.69,178.395l34.875,23.799   c2.407,1.634,5.187,2.454,7.965,2.454c2.781,0,5.559-0.82,7.958-2.454l34.881-23.799L336,296.767H45.068L147.69,178.395z    M256.863,162.366l95.941-65.465v176.123L256.863,162.366z" fill="#a3a3a3" id="svg_2" opacity="0.7"/>
</g><g id="svg_3">
</g><g id="svg_4">
</g><g id="svg_5">
</g><g id="svg_6">
</g><g id="svg_7">
</g><g id="svg_8">
</g><g id="svg_9">
</g><g id="svg_10">
</g><g id="svg_11">
</g><g id="svg_12">
</g><g id="svg_13">
</g><g id="svg_14">
</g><g id="svg_15">
</g><g id="svg_16">
</g><g id="svg_17">
</g></g></svg>